<?xml version="1.0" encoding="UTF-8"?>
<svg width="5465px" height="1737px" viewBox="0 0 5465 1737" version="1.1" xmlns="http://www.w3.org/2000/svg" xmlns:xlink="http://www.w3.org/1999/xlink">
    <!-- Generator: Sketch 54.1 (76490) - https://sketchapp.com -->
    <title>splatoon-mode-icon</title>
    <desc>Created with Sketch.</desc>
    <g id="页面1" stroke="none" stroke-width="1" fill="none" fill-rule="evenodd">
        <g id="Clam-Blitz" transform="translate(0.000000, 490.000000)">
            <path d="M586.944067,782.419858 C535.310455,778.058622 472.261699,768.378788 411.582644,752.435354 C359.924082,677.611795 302.664519,604.858553 239.803954,534.175628 C177.275887,463.866577 113.872934,406.464882 49.5950937,361.970542 C65.1947431,334.492692 90.0365165,304.051343 128.675248,275.454601 C136.095869,269.962558 144.004274,264.64685 152.310627,259.510169 C295.845943,347.033311 445.331732,505.251815 498.576733,588.714148 C530.376965,638.561485 559.83274,703.130055 586.944057,782.419857 Z M844.139383,748.59325 C812.459494,764.515119 766.16256,775.936946 715.218665,781.448461 C705.839995,736.377654 692.934692,696.440295 676.502754,661.636385 C646.93841,599.017189 554.900395,453.236973 466.491477,362.947331 C395.136932,290.07486 334.070878,248.433056 257.979761,209.352822 C312.158203,189.07182 368.10405,174.311085 411.65163,165.494925 C491.294181,200.890763 589.914929,268.567298 657.120123,354.762226 C732.848616,451.888827 785.580333,532.892603 815.341035,618.835863 C831.649759,665.932362 841.249208,709.184824 844.139383,748.59325 Z M522.896631,150.519355 C563.230711,147.937456 600.844743,149.159993 645.666874,153.360736 C716.689407,223.696039 758.716489,285.207773 799.646393,350.275656 C840.576296,415.34354 890.618103,512.354586 901.936973,578.295958 C908.796111,618.255864 909.688467,649.61255 902.438149,676.450289 C878.508114,521.059965 775.49098,357.901164 721.302913,299.056872 C663.604871,236.401002 596.059553,189.246357 522.896631,150.519355 Z" id="stripes" fill="#D8D8D8"></path>
            <path d="M440.360018,160.230126 C362.291692,172.87576 213.565625,212.626758 128.675248,275.454601 C43.7848722,338.282445 25.4914773,410.014078 25.4914773,439.66001 C25.4914773,459.423965 30.5598419,481.668402 40.6965711,506.393321 C53.9703137,532.384241 67.8416459,552.548923 82.3105677,566.887369 C104.01395,588.395038 127.79444,622.027389 232.125445,680.266375 C305.699301,721.336302 340.778383,733.541625 408.247328,751.552025 C495.763976,774.91403 588.752339,785.170981 645.666874,785.170981 C746.45836,785.170981 846.415635,761.630075 877.371036,724.190582 C908.326438,686.751089 913.255843,644.23733 901.936973,578.295958 C890.618103,512.354586 840.576296,415.34354 799.646393,350.275656 C758.716489,285.207773 716.689407,223.696039 645.666874,153.360736 C572.424046,146.496396 518.428345,147.584491 440.360018,160.230126 Z" id="clam-shell" stroke="#979797" stroke-width="50"></path>
        </g>
        <g id="Rainmaker" transform="translate(1037.000000, 311.000000)" fill="#D8D8D8">
            <path d="M555.932169,302.518295 C549.508403,302.347098 543.080657,302.639873 536.699061,303.394337 C532.527021,304.061798 532.026376,302.560012 532.527021,298.847264 C537.908953,259.383671 557.267223,228.305049 587.890002,203.150138 C611.220387,183.475118 639.84093,171.125389 670.162646,167.649591 C702.692458,163.365405 735.777156,167.680372 766.119584,180.164472 C785.929797,187.988856 804.909343,197.771157 822.775898,209.365862 C830.156207,214.361651 837.220441,219.809071 843.928145,225.676924 C850.770291,231.642351 856.986632,231.308621 863.745338,225.009464 C888.074261,201.861492 916.439851,183.367717 947.436476,170.444581 C977.934094,157.9297 1009.2244,157.9297 1040.89019,163.811694 C1067.99537,168.414255 1093.60328,179.443158 1115.56972,195.974939 C1144.48196,218.126279 1160.9198,248.20371 1169.80625,282.911648 C1170.68238,286.332382 1169.80625,287.083275 1166.26002,286.791261 C1140.35021,284.20996 1114.22278,284.784287 1088.45145,288.501628 C1062.47201,292.153496 1037.60011,301.420811 1015.5659,315.658921 C1002.9974,324.023865 991.035584,333.266166 979.769792,343.316809 C957.866578,362.756591 939.718201,385.03308 928.954336,412.565819 C925.469413,422.131157 923.117042,432.071741 921.945307,442.184371 C920.042375,456.255283 919.30281,470.459108 919.734126,484.651535 C920.651974,514.144939 926.159068,542.55372 940.302287,568.793254 C946.81067,580.80754 955.196472,582.100745 964.833886,572.339137 C977.600331,559.379282 990.269428,546.335995 1002.84118,533.209275 C1004.65987,530.829614 1007.89573,530.046822 1010.60117,531.332043 C1048.61036,543.945778 1084.45081,562.335577 1116.86305,585.855209 C1159.78632,616.077749 1195.09359,655.865905 1219.9959,702.076741 C1237.1918,734.885587 1248.96984,770.258461 1254.87416,806.826297 C1255.33309,809.621288 1254.58212,810.330464 1251.87029,810.121883 C1213.15375,806.90973 1174.47894,803.739293 1135.84584,799.609382 C1097.21274,795.479472 1059.33061,791.015831 1021.23988,785.300701 C1002.46569,782.505711 983.691511,779.752437 965.125929,775.664243 C954.320344,773.286415 947.102713,777.207745 944.72465,789.972924 C936.714331,832.857251 924.949176,874.531805 904.088973,913.202789 C894.242956,931.432799 879.640814,945.699764 865.080391,959.84158 C825.56385,998.251595 780.949641,1031.04217 732.492935,1057.29079 C689.459211,1080.38727 643.537582,1097.643 595.942041,1108.6018 C552.551588,1118.96614 508.503462,1126.35322 464.105552,1130.71143 C430.754536,1134.0406 397.238529,1135.43348 363.726251,1134.88305 C332.394224,1134.34074 301.145639,1133.54813 270.648021,1124.41227 C254.919427,1119.65661 239.691478,1113.89977 227.63428,1102.01063 C221.266046,1095.44294 217.679099,1086.67073 217.621383,1077.52318 C216.077728,1053.91177 228.343527,1039.26936 247.326313,1028.54828 C251.61841,1026.3075 254.953228,1022.5877 256.713405,1018.07749 C260.544016,1008.09974 265.999658,998.824662 272.859203,990.628188 C275.456803,987.570762 278.42832,984.851814 281.703929,982.535231 C285.87597,979.53166 286.501776,979.656809 287.836829,984.704478 C291.145723,999.000145 292.825236,1013.62445 292.843278,1028.29798 C292.843278,1033.13707 293.218762,1038.01787 292.843278,1042.81524 C292.545782,1048.22287 294.972833,1053.42094 299.309941,1056.66505 C312.094419,1067.11681 328.288714,1072.47971 344.785186,1071.72462 C350.387941,1071.73368 355.977862,1071.18872 361.473349,1070.09768 C365.03981,1069.85008 368.33015,1068.08932 370.514516,1065.25949 C372.698881,1062.42967 373.568752,1058.8009 372.90474,1055.28841 C371.821025,1042.99275 372.779637,1030.60251 375.741728,1018.61981 C377.572941,1010.26996 381.945255,1002.69203 388.257851,996.927345 C390.927957,994.63295 392.763655,994.758099 395.225159,997.469657 C404.937867,1008.79704 411.078582,1022.74654 412.872891,1037.55899 C414.019086,1044.63724 414.646562,1051.78976 414.750309,1058.95944 C415.000632,1070.84858 423.636756,1077.89863 435.610513,1076.27169 C444.875774,1075.3513 452.726875,1069.05468 455.636309,1060.21093 C461.744596,1045.66618 462.658014,1029.46198 458.222974,1014.32303 C450.837454,989.576584 441.360588,965.502987 429.894818,942.362462 C427.09955,936.981063 428.643205,930.556758 428.476324,924.633047 C427.819883,904.795859 428.670643,884.937464 431.021269,865.229077 C434.400622,837.028878 440.158038,809.329274 455.052223,784.466376 C456.975922,781.553484 457.547531,777.951716 456.620192,774.586447 C455.692853,771.221178 453.356959,768.420447 450.212656,766.903826 C434.692664,758.560572 419.047511,750.425899 403.485799,742.166077 C399.148779,739.659511 393.690539,740.232233 389.968387,743.58443 C384.669895,747.756057 379.538285,752.42828 374.364955,756.891921 C371.348078,760.043761 369.68571,764.251681 369.733989,768.614193 C365.228185,803.155266 355.006686,835.360227 333.562396,863.602142 C327.137453,871.945397 327.054012,871.945397 321.421757,863.18498 C309.904353,843.998573 302.264241,822.738773 298.934457,800.610573 C298.281837,792.459655 292.246182,785.757837 284.207153,784.257795 C258.924586,777.499759 233.808901,770.199411 207.775366,766.86211 C203.481648,766.375272 199.163251,766.13848 194.84204,766.152933 C191.208875,765.755645 187.590805,767.021814 184.998363,769.597798 C182.405922,772.173781 181.116968,775.783483 181.491509,779.418707 C181.64974,798.290464 179.71885,817.121774 175.734093,835.568808 C171.018354,858.499436 161.908779,880.300753 148.907871,899.77015 C146.279485,903.608046 145.069593,903.441181 142.733251,899.561568 C129.945922,877.493251 121.452301,853.203904 117.701006,827.976447 C114.414363,808.22773 113.017368,788.210776 113.528965,768.19703 C113.891318,764.632832 112.744057,761.079817 110.365663,758.400425 C107.987269,755.721033 104.595205,754.16025 101.012843,754.096931 C85.9517756,752.344847 71.8085574,748.006355 60.5857677,737.410422 C46.3363435,724.489696 40.1234641,704.913102 44.3148086,686.141125 C45.7402426,677.369224 53.0498872,670.753093 61.9208207,670.205509 L63.4227554,670.205509 C69.3053329,669.663198 74.3535022,667.535668 76.1892002,661.486809 C78.0248981,655.437949 75.5633941,650.515429 70.848988,646.010072 C46.609431,622.815825 37.3475005,593.989882 40.6434127,561.034028 C41.6616566,550.415573 46.6895707,540.584514 54.7031902,533.543005 C74.1526801,515.298798 101.102793,507.358513 127.33842,512.142558 C141.747775,514.110117 153.224279,525.18047 155.708297,539.508432 C156.60136,545.657856 161.228908,550.601185 167.306571,551.898164 C173.147428,552.774206 177.820114,549.9375 181.616671,543.262896 C182.743122,541.218799 183.994734,539.091269 185.204626,537.255753 C190.020704,530.068288 196.561448,524.202282 204.229132,520.193798 C254.877707,490.992409 305.818325,462.375047 358.344318,436.761256 C382.834198,424.74697 407.61612,413.316712 433.19073,403.638537 C436.361481,402.470481 437.654813,402.637346 437.779975,406.350094 C438.32234,426.207039 438.822985,446.022268 434.150299,465.545483 C433.074011,470.084352 431.434187,474.470795 429.269011,478.602676 C426.905213,482.275843 426.627714,486.915554 428.536849,490.844233 C430.445984,494.772912 434.265502,497.422079 438.614383,497.833877 C462.381849,502.415193 484.795201,512.343994 504.157143,526.868402 C504.988956,527.409563 505.770836,528.023836 506.493486,528.703918 C511.522527,534.130385 519.02171,536.534947 526.26896,535.044791 C567.029798,530.414285 605.329132,540.09246 642.251693,556.570387 C672.05834,570.090176 699.709997,587.927733 724.315735,609.508335 C729.422647,614.791298 737.384519,616.112499 743.924327,612.762204 C765.408717,603.093464 782.858389,586.250227 793.279569,565.122222 C803.599467,544.185959 809.601133,521.387563 810.927302,498.084175 C813.39572,471.909452 808.814954,445.551053 797.660212,421.743398 C784.643445,393.793497 763.783241,372.977077 738.04175,356.624299 C693.561748,328.079288 643.089816,310.19101 590.560108,304.353811 C579.064569,303.049972 567.501143,302.437032 555.932169,302.518295 Z M287,680 C342.78076,680 388,641.720346 388,594.5 C388,547.279654 342.78076,509 287,509 C231.21924,509 186,547.279654 186,594.5 C186,641.720346 231.21924,680 287,680 Z" id="形状结合"></path>
            <ellipse id="椭圆形" stroke="#979797" cx="285" cy="588" rx="31" ry="28"></ellipse>
        </g>
        <g id="Splat-Zone" transform="translate(2329.000000, 218.000000)" fill="#D8D8D8">
            <path d="M487.743453,298 L1292.74345,298 L925,684 L120,684 L487.743453,298 Z M526.101522,369 L293.64193,613 L886.64193,613 L1119.10152,369 L526.101522,369 Z" id="形状结合" transform="translate(706.371726, 491.000000) rotate(10.000000) translate(-706.371726, -491.000000) "></path>
            <path d="M1107.76488,525.758893 L1028.82156,583.934346 L549.631104,499.44014 L383.527688,621.84621 L279.138066,603.439503 L524.1848,422.85798 L1107.76488,525.758893 Z M1212.1545,544.1656 L1316.95504,562.644763 L887.770241,878.922576 L95,739.135793 L200.194748,661.614956 L304.58437,680.021663 L278.33294,699.367047 L862.323937,802.340416 L1133.6221,602.413509 L1133.21118,602.341053 L1212.1545,544.1656 Z" id="形状结合"></path>
            <path d="M933.598762,654.979199 L862.718143,707.213032 L453.781388,635.106449 L524.662007,582.872616 L933.598762,654.979199 Z M1037.98838,673.385906 L1108.653,685.845985 L1029.70969,744.021438 L959.045066,731.561358 L1037.98838,673.385906 Z M479.14469,711.673973 L382.639561,782.791196 L278.33294,764.399124 L374.838069,693.281901 L479.14469,711.673973 Z M1213.04263,704.252692 L1317.34925,722.644763 L888.164447,1038.92258 L95.3942058,899.135793 L199.306621,822.559942 L303.696243,840.966648 L278.727146,859.367047 L862.718143,962.340416 L887.68724,943.940018 L887.770241,943.954653 L1213.04263,704.252692 Z" id="形状结合"></path>
            <path d="M373.281902,853.952659 L887.770241,944.670834 L1038.67314,833.466434 L1107.76488,845.649171 L862.718143,1026.23069 L279.138066,923.329781 L373.281902,853.952659 Z M452.225221,795.777206 L524.1848,742.748258 L934.283517,815.059727 L862.323937,868.088675 L452.225221,795.777206 Z M1212.1545,864.055878 L1316.95504,882.535041 L887.770241,1198.81285 L95,1059.02607 L200.194748,981.505234 L888.164447,1102.81285 L1212.1545,864.055878 Z" id="形状结合"></path>
        </g>
        <g id="Tower-Control" transform="translate(3728.000000, -0.000000)" fill="#D8D8D8">
            <path d="M1319.28155,883.237732 L1324.19142,884.928337 L899.173496,1053.75389 L459.507358,902.364699 L466.961322,899.403837 L901,1049.42934 L1319.28155,883.237732 Z M1423,934.725266 L1423,1311.02832 L901,1518.42934 L379,1338 L379,962.426309 L900.876878,1142.12293 L1423,934.725266 Z" id="形状结合"></path>
            <path d="M1063,620.820438 L1562.64976,792.863648 L900.876878,1055.73297 L221.049022,821.649464 L705,629.414533 L705,718.460189 L459.507358,815.974737 L899.173496,967.363929 L1324.19142,798.538375 L1063,708.602955 L1063,620.820438 Z" id="形状结合"></path>
            <path d="M1015.78246,436.094042 L1016,436 L1016,777.937107 L884,835 L752,777.937107 L752,436 L752.215191,436.093026 L883,292 L1015.78246,436.094042 Z" id="形状结合"></path>
        </g>
    </g>
</svg>